{"glyphs":{"\u0000":{"ha":0,"x_min":0,"x_max":0,"o":""},"\u001d":{"ha":0,"x_min":0,"x_max":0,"o":""}," ":{"ha":453,"x_min":0,"x_max":0,"o":""}," ":{"ha":453,"x_min":0,"x_max":0,"o":""},"A":{"ha":947,"x_min":0,"x_max":0,"o":"m 881 835 b 621 244 768 603 681 406 l 594 244 b 354 231 517 244 436 240 b 672 635 460 371 565 506 b 890 878 769 751 842 832 b 899 883 893 881 896 882 b 906 889 901 885 904 888 l 904 886 b 881 835 900 874 892 857 z m 903 822 l 904 822 b 929 876 915 844 924 863 b 932 883 931 879 931 882 b 936 903 935 890 936 896 l 935 911 b 928 919 933 914 931 917 b 918 924 925 921 922 922 l 903 919 b 874 897 894 915 885 907 b 651 651 822 849 747 767 b 318 226 539 514 428 372 b 165 196 258 218 208 208 b 79 167 129 185 100 175 b 33 143 58 157 43 150 l 28 136 b 25 122 26 132 25 128 b 29 117 26 119 28 118 b 35 113 31 115 33 114 b 40 110 36 111 39 110 b 43 108 42 108 42 108 l 53 108 b 96 113 64 108 78 110 b 104 117 99 113 101 114 b 107 126 106 119 107 122 b 104 136 107 131 106 133 b 93 139 101 138 97 139 l 81 138 l 89 142 b 172 171 110 150 138 160 b 296 196 207 181 247 189 b 135 -36 228 103 174 25 b 133 -40 133 -37 133 -39 b 132 -43 132 -42 132 -42 b 136 -53 132 -47 133 -50 b 144 -57 138 -56 140 -57 b 153 -54 147 -57 150 -56 b 156 -50 154 -53 156 -51 b 332 201 199 15 257 99 b 611 218 428 213 521 218 b 492 -183 563 86 522 -49 l 492 -186 b 496 -196 492 -190 493 -193 b 504 -200 497 -199 500 -200 b 518 -189 510 -200 514 -196 b 639 218 549 -53 589 83 b 775 207 690 217 736 213 l 778 207 b 788 211 782 207 785 208 b 790 219 789 214 790 217 b 788 228 790 224 789 226 b 778 232 785 229 782 231 l 769 233 b 649 243 738 239 697 242 b 901 819 708 401 793 594 b 903 822 903 821 903 821 z "},"B":{"ha":871,"x_min":0,"x_max":0,"o":"m 7 -56 l 33 -51 b 40 -54 33 -53 38 -54 b 51 -50 44 -54 47 -53 b 92 -44 65 -47 72 -47 b 243 -11 133 -37 186 -26 b 572 139 357 19 486 68 b 694 299 643 199 683 251 b 697 324 696 307 697 315 b 642 414 697 361 676 393 b 457 451 599 439 536 451 b 319 440 415 451 369 449 b 731 692 517 525 651 621 b 818 826 778 733 811 785 l 819 843 b 804 881 819 858 815 871 b 776 890 796 886 788 889 l 769 890 b 739 886 761 890 750 889 b 421 654 668 865 551 799 b 265 446 369 599 317 526 b 250 439 260 443 254 442 b 438 826 310 571 374 703 l 439 832 b 425 846 439 839 433 846 b 414 838 419 846 415 842 b 214 425 346 707 278 567 b 169 407 199 419 186 413 b 161 396 164 406 161 401 b 174 382 161 388 167 382 l 176 383 b 197 388 183 385 190 385 b 33 -26 133 244 76 103 b 6 -29 25 -26 10 -29 b -7 -42 -1 -29 -7 -35 b 7 -56 -7 -50 -1 -56 z m 307 463 b 440 638 351 529 396 589 b 746 861 568 778 683 843 l 768 864 l 774 864 b 788 860 781 864 785 863 b 794 842 792 857 794 851 l 793 831 b 714 711 788 800 757 750 b 307 463 636 642 503 546 z m 64 -22 b 267 401 126 149 196 288 b 456 425 336 415 401 424 b 628 392 532 425 592 413 b 672 325 657 374 672 353 l 669 306 b 556 160 660 267 625 217 b 236 14 475 92 349 44 b 88 -18 181 -1 129 -11 z m 222 381 b 231 394 225 386 225 393 z "},"C":{"ha":683,"x_min":0,"x_max":0,"o":"m 158 -36 b 408 51 238 -36 321 -7 b 560 194 463 88 513 135 b 563 203 561 196 563 199 b 549 217 563 213 558 217 b 539 211 546 217 543 215 b 243 3 453 103 354 33 b 160 -10 213 -6 185 -10 b 56 38 103 -6 68 10 b 36 119 43 57 36 85 b 53 235 36 151 42 190 b 272 610 74 328 147 453 b 442 800 335 692 390 754 b 567 875 497 850 539 875 b 599 831 583 875 594 860 b 600 808 600 824 600 817 b 567 633 600 768 589 710 l 565 629 b 579 615 565 619 569 615 b 592 625 585 615 589 618 b 626 810 615 704 626 765 b 603 886 626 844 618 871 b 565 901 592 896 579 901 b 424 819 528 901 481 874 b 250 625 372 772 314 707 b 38 279 125 467 54 351 b 11 119 19 207 11 154 b 158 -36 11 15 60 -36 z "},"D":{"ha":1315,"x_min":0,"x_max":0,"o":"m 19 -82 b 804 179 306 -15 586 85 b 1078 313 913 226 1006 274 b 1219 413 1149 353 1197 386 b 1276 550 1256 457 1276 504 l 1275 569 b 1179 707 1268 621 1236 668 b 554 835 1067 785 861 835 l 542 835 b 399 824 515 835 446 829 l 358 815 b 349 807 356 814 353 814 b 346 799 347 806 346 801 l 347 793 b 353 786 349 789 351 788 b 365 782 357 783 361 783 l 404 778 b 418 792 413 778 418 783 b 415 799 418 794 417 797 b 542 810 460 804 521 810 b 1164 686 853 810 1060 760 b 1249 567 1217 650 1243 608 l 1250 550 b 1199 429 1250 511 1233 471 b 1064 336 1183 410 1135 375 b 793 203 994 296 901 250 b 239 3 635 135 442 63 b 481 522 282 128 393 350 b 588 735 528 614 568 692 l 599 761 l 601 769 l 601 776 b 593 788 600 781 599 785 l 588 788 l 581 786 l 576 783 b 568 776 574 782 571 779 b 547 749 564 769 557 761 l 546 740 b 554 728 546 735 549 731 b 458 535 535 685 501 618 b 208 -6 367 354 249 121 b 13 -57 144 -24 79 -42 b 3 -69 6 -60 3 -64 b 15 -82 3 -76 8 -82 z "},"E":{"ha":747,"x_min":0,"x_max":0,"o":"m 11 -61 l 17 -60 b 569 82 204 36 400 74 b 582 94 576 82 582 88 b 568 107 582 103 576 107 b 32 -25 404 100 215 64 b 178 440 79 132 131 283 b 461 485 276 476 386 483 b 474 499 468 485 474 492 b 461 511 474 506 468 511 b 188 471 389 510 285 503 b 281 842 222 590 256 713 b 350 863 310 851 336 860 b 579 885 443 881 517 885 b 694 882 621 885 658 883 b 708 894 703 882 708 888 b 694 908 708 901 703 907 l 692 908 b 601 914 663 913 626 914 l 589 914 b 344 890 519 914 438 908 b 286 874 331 888 310 882 l 286 876 b 274 889 286 885 281 889 b 258 863 260 889 263 878 b 128 804 211 844 154 824 b 107 778 115 797 108 792 b 128 756 107 763 118 758 l 153 753 l 178 754 b 190 767 183 754 190 760 b 176 779 190 774 183 779 b 140 781 158 779 147 779 b 143 783 142 782 140 782 b 253 832 185 806 193 811 b 157 460 226 701 193 579 b 88 426 133 450 110 439 b 81 415 85 425 81 419 b 94 401 81 407 88 401 b 147 426 100 401 125 419 b -1 -44 99 269 46 115 b 11 -61 -1 -54 1 -61 z "},"F":{"ha":779,"x_min":0,"x_max":0,"o":"m 11 -35 b 24 -25 17 -35 21 -32 b 192 526 71 147 132 339 b 369 542 246 536 311 542 b 488 533 415 542 457 539 b 503 547 497 533 503 540 b 493 560 503 554 497 558 l 488 561 b 386 568 457 567 432 568 b 201 554 326 568 260 564 b 296 842 233 654 265 750 l 306 843 b 600 867 389 860 496 867 b 714 864 639 867 678 867 b 728 878 722 864 728 869 b 715 890 728 885 722 890 b 599 893 678 893 639 893 b 304 869 494 893 396 886 b 310 888 308 882 310 879 b 296 901 310 894 304 901 b 275 864 285 901 279 879 b 188 839 243 857 213 849 b 139 799 161 829 140 819 b 154 778 139 789 146 778 b 167 792 161 778 167 783 l 165 799 b 265 835 175 808 213 824 l 172 549 b 121 525 151 544 121 543 b 133 513 121 518 126 513 b 163 519 144 513 151 518 b -1 -18 104 338 44 150 b 11 -35 -1 -28 1 -35 z "},"G":{"ha":683,"x_min":0,"x_max":0,"o":"m 157 43 b 153 42 156 43 154 42 b 115 38 139 39 126 38 b 65 50 94 38 78 42 b 26 111 46 63 33 83 b 22 153 24 124 22 138 b 74 360 22 210 39 278 b 239 621 113 447 168 533 b 481 842 310 708 390 782 b 485 844 482 842 483 843 b 569 878 521 867 550 878 l 575 878 b 607 863 590 878 601 872 b 618 814 614 850 618 833 b 606 747 618 793 614 771 l 606 743 b 610 733 606 739 607 736 b 618 729 611 731 614 729 b 626 732 621 729 624 731 b 631 738 628 733 629 736 b 644 814 640 764 644 789 b 628 876 644 838 639 858 b 574 904 615 894 597 904 l 569 904 b 468 864 543 903 508 890 b 221 639 375 803 292 728 b 53 369 149 550 93 460 b -3 157 15 288 -3 217 b 3 107 -3 139 -1 122 b 54 28 10 72 26 46 b 119 13 72 18 93 13 b 161 17 132 13 146 14 b 313 90 217 33 267 58 b 422 190 357 122 393 156 b 468 286 450 225 465 257 l 468 292 b 456 324 468 304 464 314 b 414 340 446 333 432 339 b 364 343 399 342 382 342 b 274 347 336 346 306 347 b 229 346 258 347 244 347 b 221 343 226 346 224 344 b 217 333 218 340 217 338 b 221 324 217 329 218 326 b 231 319 224 321 226 319 b 272 321 244 321 258 321 b 357 317 301 321 331 319 b 411 314 376 315 394 315 b 436 306 424 314 432 311 b 442 288 440 301 442 296 b 400 207 440 267 426 240 b 297 113 374 174 340 142 b 157 43 254 82 208 60 z "},"H":{"ha":883,"x_min":0,"x_max":0,"o":"m 19 -67 b 33 -57 25 -67 31 -64 b 213 479 74 106 142 290 b 424 488 285 485 354 488 b 608 482 483 488 544 486 b 431 -25 521 272 453 89 l 431 -28 b 443 -40 431 -35 436 -40 b 456 -28 450 -40 456 -35 b 636 482 478 83 547 268 b 717 475 663 481 689 478 b 731 489 725 475 731 482 b 718 501 731 496 725 501 l 715 501 b 647 507 694 504 671 506 b 810 890 697 629 754 758 b 811 894 811 892 811 893 b 799 908 811 903 806 908 b 786 900 793 908 789 904 b 619 508 728 767 671 633 b 435 515 556 513 494 515 l 397 515 b 224 508 340 515 282 513 b 361 879 271 633 318 758 b 368 901 365 889 367 896 b 369 910 369 904 369 906 b 367 918 369 911 369 914 b 356 922 364 921 358 922 l 357 921 l 354 921 b 344 915 347 919 347 917 l 340 910 b 329 894 338 906 333 901 b 278 803 314 871 292 831 l 276 797 b 289 783 276 789 282 783 b 301 790 294 783 299 788 b 306 799 301 793 304 796 l 194 504 b 82 493 158 501 121 497 b 71 479 76 493 71 488 b 83 467 71 472 76 467 b 183 476 118 471 151 474 b 7 -50 114 292 49 111 l 7 -54 b 19 -67 7 -61 13 -67 z "},"I":{"ha":513,"x_min":0,"x_max":0,"o":"m 15 11 l 21 14 b 28 19 26 17 26 18 l 32 25 b 71 99 43 43 61 82 b 72 106 72 101 72 104 b 60 118 72 113 67 118 l 58 118 b 438 896 153 369 315 639 l 447 917 b 449 925 449 919 449 921 l 447 933 b 435 940 444 938 439 940 b 425 936 428 940 426 938 b 419 931 422 935 421 933 b 407 917 415 928 411 922 b 346 831 389 894 363 857 b 343 824 344 831 343 826 b 356 810 343 815 349 810 b 367 817 361 810 365 814 l 371 822 b 21 96 250 581 104 332 b 1 32 8 61 3 43 l 1 24 b 8 14 1 21 3 17 z "},"J":{"ha":1150,"x_min":0,"x_max":0,"o":"m 68 -519 b 11 -421 29 -518 13 -475 b 33 -303 11 -382 19 -339 b 490 88 99 -133 340 28 b 610 132 531 104 569 118 b 296 -340 508 -36 396 -208 b 119 -504 221 -431 163 -482 b 68 -519 99 -515 81 -519 z m 319 -353 b 646 142 429 -207 538 -42 b 825 183 701 160 761 174 b 1043 199 889 193 961 199 l 1071 199 b 1081 203 1075 199 1078 200 b 1085 213 1083 206 1085 208 b 1081 222 1085 217 1083 219 b 1071 225 1078 224 1075 225 l 1042 225 b 836 211 965 225 897 221 b 665 174 775 201 718 189 b 786 392 711 250 751 322 b 881 608 821 458 851 531 b 933 808 910 685 926 751 b 935 838 935 819 935 829 b 929 883 935 856 933 871 b 896 922 922 904 911 917 b 872 928 888 926 879 928 b 788 894 846 928 818 917 b 665 794 747 868 706 835 b 563 683 625 754 590 718 b 558 679 560 682 558 681 b 446 493 501 610 464 547 b 433 438 438 471 433 453 l 433 432 b 443 410 433 424 436 417 b 456 406 447 407 451 406 b 469 410 460 406 465 407 b 475 414 471 411 474 413 b 476 421 476 415 476 418 b 474 431 476 425 475 428 b 463 433 471 432 467 433 l 460 433 l 460 438 b 471 485 460 447 464 464 b 581 664 488 536 524 596 l 582 665 b 682 775 608 699 642 736 b 801 872 722 815 763 847 b 874 901 833 892 857 901 b 886 899 878 901 882 900 b 906 876 894 897 901 889 b 910 839 908 867 910 854 l 908 811 b 857 619 901 760 885 696 b 763 403 828 543 797 471 b 629 164 724 328 679 249 b 481 111 579 149 529 131 b 213 -44 397 79 308 26 b 8 -293 117 -117 49 -200 b -15 -421 -7 -336 -15 -379 b 19 -526 -15 -465 -4 -500 b 67 -546 33 -539 49 -546 b 132 -528 86 -546 108 -540 b 314 -358 178 -504 239 -447 b 315 -357 314 -358 315 -357 b 319 -353 317 -356 318 -354 z "},"K":{"ha":1090,"x_min":0,"x_max":0,"o":"m 729 749 b 583 639 683 714 635 676 b 729 749 631 678 679 714 z m 140 290 l 138 282 b 131 264 135 276 132 271 l 101 264 b 125 279 108 268 117 274 b 140 290 129 283 135 286 z m 888 871 b 882 869 885 871 883 871 b 654 731 817 840 742 794 b 443 540 567 667 497 603 l 443 539 b 442 538 442 539 442 539 b 440 532 440 536 440 533 b 194 358 353 469 271 413 b 433 885 263 531 342 706 b 442 907 438 894 440 901 b 443 911 442 908 442 910 b 443 915 443 913 443 914 b 443 919 443 917 443 918 b 440 922 442 921 442 921 b 435 928 439 924 436 926 b 428 929 432 929 429 929 l 429 932 b 422 931 425 931 424 931 b 419 928 421 929 421 929 l 418 926 b 414 921 417 925 415 924 b 403 907 410 917 407 913 b 374 864 393 894 383 879 b 344 818 363 847 353 832 b 344 814 344 817 344 815 b 343 811 343 813 343 813 b 347 801 343 807 344 804 b 356 797 350 799 353 797 b 363 800 357 797 360 799 b 157 333 285 640 217 485 b 53 261 118 307 83 282 b 47 250 49 257 47 254 b 51 242 47 247 49 244 b 61 238 54 239 57 238 b 119 239 81 239 100 239 b 1 -106 72 114 33 -1 l 1 -107 b 0 -110 0 -108 0 -108 b 4 -118 0 -112 1 -115 b 14 -122 7 -121 10 -122 b 26 -112 18 -122 22 -119 b 147 239 58 -6 99 111 b 1014 199 471 240 760 226 b 1024 203 1018 199 1021 200 b 1028 213 1026 206 1028 208 b 1025 221 1028 215 1026 218 b 1015 225 1022 224 1019 225 l 1014 225 b 157 265 764 251 478 265 b 176 317 164 282 169 299 b 550 581 290 394 415 482 b 894 847 685 679 799 768 b 900 857 899 850 900 853 b 896 867 900 861 899 864 b 888 871 893 869 890 871 z "},"L":{"ha":671,"x_min":0,"x_max":0,"o":"m 17 -87 b 521 11 189 -15 365 11 l 579 10 b 593 22 588 10 593 15 b 579 36 593 31 588 36 l 531 38 b 33 -54 376 38 204 14 b 401 974 147 242 314 653 b 403 978 401 974 403 975 b 389 990 403 985 396 990 b 376 981 383 990 379 988 b 0 -71 288 654 114 226 b -1 -75 -1 -71 -1 -74 b 13 -87 -1 -82 4 -87 z "},"M":{"ha":1110,"x_min":0,"x_max":0,"o":"m 785 -26 b 813 -4 793 -21 801 -14 b 838 22 822 6 831 14 l 839 31 b 836 40 839 35 838 38 b 826 43 833 42 831 43 b 819 42 824 43 821 43 b 815 38 818 40 817 39 b 796 15 811 31 806 24 b 771 -4 786 7 778 1 b 768 -6 771 -4 769 -6 b 749 -12 758 -10 753 -12 l 747 -12 b 746 -12 746 -12 746 -12 b 744 -10 744 -12 744 -11 b 743 -6 743 -8 743 -7 l 742 4 b 758 89 742 22 747 50 b 894 435 789 185 835 300 b 906 458 899 443 901 451 b 1033 772 961 583 1004 688 b 1050 828 1042 794 1047 813 b 1051 832 1050 829 1050 831 b 1054 857 1053 842 1054 850 l 1053 867 b 1051 876 1053 869 1053 872 b 1044 883 1050 879 1047 882 b 1031 888 1040 886 1036 888 l 1026 888 b 992 869 1015 886 1004 879 l 990 868 b 843 707 949 831 900 778 b 669 488 786 636 728 564 b 611 413 649 461 629 436 b 460 231 546 328 496 267 l 450 221 b 457 244 451 228 453 235 b 510 390 469 279 486 328 b 575 572 532 453 554 513 b 593 617 579 585 586 599 b 660 792 617 671 639 729 b 676 871 671 824 676 850 b 675 888 676 876 676 882 b 667 904 674 894 671 900 b 649 914 663 910 656 913 l 644 914 b 606 899 632 914 619 908 b 461 760 561 869 513 824 b 303 535 410 694 357 619 b 64 99 214 389 135 244 b 89 171 72 122 81 146 b 146 336 104 219 124 274 b 181 433 157 368 168 401 b 281 710 217 533 250 625 l 351 907 l 353 914 l 353 918 b 346 929 353 922 350 926 b 340 931 344 931 342 931 l 336 931 b 332 929 335 929 333 929 b 328 928 331 928 329 928 b 326 926 328 926 328 926 l 319 919 b 292 879 310 907 300 894 l 292 874 b 296 864 292 869 293 867 b 304 860 297 861 300 860 l 308 861 b 290 813 303 847 297 831 b 263 733 283 793 274 767 b 257 718 261 729 258 724 b 151 428 225 631 189 533 b 122 346 142 400 132 372 b 86 243 110 311 99 276 b 14 32 54 156 31 85 l 1 -11 b 0 -14 1 -12 1 -12 b -1 -25 -1 -18 -1 -21 b -3 -29 -3 -26 -3 -28 b -3 -36 -3 -31 -3 -33 l -1 -40 l 0 -42 b 1 -44 0 -43 0 -43 b 6 -47 3 -46 4 -46 l 11 -49 l 17 -47 l 21 -44 l 28 -35 l 46 0 b 326 521 122 169 217 343 b 619 878 438 699 535 818 b 646 888 632 885 642 888 l 650 888 l 650 883 l 651 875 b 636 800 651 860 646 835 b 574 633 618 743 597 688 b 553 582 565 613 558 596 b 486 399 531 522 508 461 b 433 254 463 336 446 289 b 425 229 429 244 426 236 b 422 218 424 225 424 221 l 422 204 b 424 197 422 203 422 200 b 429 190 425 194 426 192 b 439 186 433 188 436 186 l 444 188 b 451 190 447 189 450 189 b 457 193 453 192 456 192 b 479 213 464 197 471 204 b 632 397 517 251 568 313 b 699 482 653 425 675 453 b 869 697 757 557 814 629 b 1003 844 922 763 967 811 b 1008 849 1004 846 1007 847 l 1010 850 b 1026 861 1018 856 1024 860 l 1028 861 l 1029 853 l 1026 835 l 1010 782 b 901 515 985 711 949 622 b 872 446 892 492 882 469 b 735 96 813 311 767 194 b 717 6 722 60 717 29 l 718 -10 b 726 -26 719 -17 722 -22 b 742 -37 731 -32 735 -36 l 750 -39 b 783 -28 761 -39 772 -35 b 785 -26 785 -28 785 -26 z "},"N":{"ha":901,"x_min":0,"x_max":0,"o":"m 576 -21 b 579 -18 578 -19 579 -19 b 594 -4 585 -14 589 -10 b 611 14 601 3 607 8 b 614 22 613 15 614 18 b 610 32 614 26 613 29 b 600 35 607 33 604 35 b 593 33 597 35 594 35 b 589 29 592 32 590 31 b 578 17 588 26 583 22 b 561 1 571 10 565 6 b 546 -6 554 -3 550 -4 b 539 -8 542 -7 540 -8 l 538 -8 l 536 -3 l 535 10 b 549 89 535 26 539 53 b 661 406 574 174 611 279 b 675 440 665 417 671 428 b 806 807 731 581 774 703 b 824 911 818 850 824 885 l 824 924 b 807 960 822 939 817 951 b 789 965 803 964 796 965 l 790 967 b 769 963 783 967 776 965 b 488 746 678 928 583 856 b 222 401 392 636 303 522 b 61 153 154 300 100 217 b 138 361 82 210 108 279 b 207 564 167 443 189 510 b 243 672 219 601 231 638 b 288 815 261 722 275 769 b 294 844 290 825 293 835 b 307 906 301 875 306 896 b 308 915 308 910 308 913 l 308 919 b 308 924 308 921 308 922 b 304 928 307 925 306 926 b 301 929 303 928 303 928 b 299 932 300 931 300 931 b 294 932 297 932 296 932 l 288 931 l 283 926 l 279 919 b 263 881 275 910 269 897 l 244 839 l 243 833 b 247 824 243 829 244 826 b 256 819 249 821 251 819 l 261 821 b 217 676 249 775 235 728 b 182 572 204 644 193 610 b 128 410 169 531 151 476 b 60 219 104 343 82 279 b 13 96 38 160 22 118 b 0 65 6 82 1 72 l -1 61 l -1 57 l 0 51 b 3 47 0 50 1 49 b 8 43 4 46 7 44 b 14 43 10 43 13 43 b 18 44 15 43 17 43 l 24 49 b 38 68 28 53 32 58 l 63 107 b 90 151 71 119 81 135 b 243 386 131 215 181 293 b 507 729 322 507 411 621 b 778 938 603 836 693 906 b 789 940 782 939 786 940 l 793 939 b 797 935 794 938 796 936 b 799 922 799 932 799 928 l 799 913 b 782 814 799 890 793 857 b 651 450 750 711 707 590 b 525 96 596 311 554 193 b 510 11 515 61 510 33 b 511 -7 510 4 510 -1 b 519 -24 513 -14 515 -19 b 536 -33 524 -29 529 -32 l 540 -33 b 576 -21 551 -33 564 -29 z "},"O":{"ha":707,"x_min":0,"x_max":0,"o":"m 107 -56 b 157 -46 122 -56 139 -51 b 378 115 225 -26 303 32 b 647 797 519 272 647 521 b 646 854 647 815 647 835 b 563 997 642 933 608 982 b 526 1003 551 1000 539 1003 b 414 954 490 1001 450 985 l 411 951 b 244 764 360 913 301 846 b 53 392 171 657 99 525 b -1 125 19 300 -1 208 b 11 24 -1 89 3 56 b 67 -47 21 -11 40 -35 b 107 -56 79 -53 92 -56 z m 110 -28 b 76 -22 97 -28 86 -26 b 38 31 58 -15 44 1 b 25 128 29 60 25 93 b 76 383 25 206 44 294 b 267 750 122 513 193 644 b 468 957 339 854 417 933 b 496 964 478 961 488 964 l 501 964 b 521 956 510 964 515 961 b 539 875 531 943 539 918 l 539 857 b 553 844 539 850 544 844 b 565 857 560 844 565 850 l 565 876 b 540 972 565 922 557 953 l 538 975 l 554 972 b 621 851 589 961 615 926 l 622 799 b 360 133 622 532 497 286 b 150 -22 286 51 210 -3 b 110 -28 135 -26 121 -28 z "},"P":{"ha":915,"x_min":0,"x_max":0,"o":"m 33 -14 b 46 -6 39 -14 43 -11 b 218 483 113 186 169 340 b 339 469 260 474 300 469 b 647 571 458 469 564 513 b 789 707 707 611 754 660 b 850 829 824 753 844 796 l 853 863 b 839 926 853 888 847 908 b 781 975 826 951 806 967 b 742 983 768 979 756 982 l 728 983 b 615 964 690 983 651 975 b 278 667 471 915 364 807 b 342 885 300 739 322 810 b 343 890 343 886 343 889 l 343 894 b 340 901 343 896 343 899 b 332 907 339 904 335 907 b 324 906 328 907 325 907 l 318 903 b 301 882 313 897 307 890 b 265 824 289 864 274 839 l 264 818 b 276 804 264 810 269 804 b 289 811 282 804 288 808 b 299 828 290 815 296 822 b 207 536 271 731 240 635 b 197 514 204 529 200 522 l 183 518 l 179 518 b 167 506 172 518 167 513 b 176 493 167 500 169 496 l 186 490 b 21 3 121 342 69 174 l 19 -1 b 33 -14 19 -8 26 -14 z m 336 494 b 225 507 300 494 264 499 b 232 526 228 514 229 521 b 263 590 242 549 251 571 b 624 939 351 760 465 886 b 726 957 656 950 693 957 l 740 957 b 772 950 751 956 763 954 b 817 915 792 944 807 933 b 826 864 822 901 826 885 l 824 832 b 768 722 821 807 801 765 b 632 592 736 678 689 631 b 336 494 553 535 451 494 z "},"Q":{"ha":707,"x_min":0,"x_max":0,"o":"m 561 -92 b 574 -78 568 -92 574 -86 b 571 -69 574 -75 572 -71 b 436 124 514 1 471 63 b 644 701 550 264 644 467 b 638 810 644 736 642 772 b 572 961 628 889 603 936 b 524 981 557 972 540 978 b 479 965 507 981 492 975 b 474 954 475 961 474 958 b 486 942 474 947 479 942 b 494 944 490 942 493 943 b 524 954 503 951 513 954 b 556 942 533 954 544 951 b 611 808 579 924 601 883 b 618 703 615 772 618 738 b 422 149 618 479 531 285 b 308 408 378 229 346 308 b 296 417 306 414 301 417 b 283 404 289 417 283 411 l 283 399 b 404 128 324 296 357 213 b 376 96 396 117 386 106 b 165 -44 303 19 226 -31 b 131 -49 153 -47 142 -49 b 90 -40 115 -49 101 -46 b 49 17 71 -31 57 -14 b 35 121 39 49 35 83 b 251 678 35 300 138 518 b 450 881 321 774 394 849 b 503 899 471 893 489 899 l 514 897 b 540 847 526 893 536 879 b 553 836 540 842 546 836 b 567 849 561 836 567 842 b 521 921 563 886 546 913 b 501 924 515 922 508 924 b 436 901 482 924 460 915 b 231 692 375 865 300 789 b 8 121 114 529 8 310 b 24 8 8 82 14 44 b 79 -65 33 -28 53 -53 b 131 -76 94 -72 113 -76 b 172 -71 144 -76 158 -74 b 394 76 240 -56 319 -3 b 418 103 403 85 411 93 b 551 -86 454 43 496 -17 b 561 -92 554 -90 557 -92 z "},"R":{"ha":901,"x_min":0,"x_max":0,"o":"m 18 -74 b 31 -65 24 -74 29 -71 b 207 347 97 100 151 233 b 369 371 249 356 304 365 b 453 374 396 374 424 374 b 790 276 572 374 701 351 b 799 274 792 275 796 274 b 813 286 806 274 813 279 b 807 296 813 290 811 293 b 458 400 713 376 581 400 b 367 396 426 400 396 399 b 325 392 351 396 339 393 b 649 557 443 438 574 499 b 806 715 721 614 772 668 b 849 824 833 756 849 793 l 847 838 b 822 878 844 854 836 868 b 771 890 808 886 792 890 b 610 836 731 890 676 874 b 267 510 457 751 354 650 b 231 446 254 490 242 468 b 417 924 292 600 349 742 b 418 928 418 924 418 926 b 406 940 418 935 413 940 l 404 940 b 393 932 400 940 394 938 b 171 367 314 722 246 553 l 153 361 l 140 358 l 129 354 l 128 353 l 125 353 l 122 347 l 126 332 l 132 329 l 139 329 b 160 336 144 331 153 335 b 7 -56 113 219 69 110 b 6 -61 6 -57 6 -58 b 18 -74 6 -68 11 -74 z m 224 382 b 288 496 244 424 267 461 b 622 814 375 633 474 731 b 771 865 688 850 738 865 b 807 856 788 865 800 861 b 821 833 815 850 819 843 l 822 824 b 783 731 822 801 810 769 b 632 578 753 686 703 633 b 224 382 543 508 356 426 z "},"S":{"ha":871,"x_min":0,"x_max":0,"o":"m 65 -106 b 42 -103 56 -106 47 -106 b 28 -93 33 -100 31 -97 l 26 -85 b 29 -71 26 -81 28 -76 b 103 31 36 -50 58 -15 b 614 311 279 192 418 258 b 257 -42 543 157 399 35 b 125 -97 208 -68 164 -86 b 65 -106 101 -103 82 -106 z m 89 51 l 86 49 b 4 -62 40 3 13 -33 b 1 -83 3 -69 1 -76 b 6 -104 1 -90 3 -97 b 33 -128 11 -115 21 -124 b 65 -132 43 -131 53 -132 b 133 -122 85 -132 107 -129 b 269 -64 175 -111 221 -92 b 489 96 347 -22 421 31 b 646 318 557 160 608 233 b 821 360 699 332 757 346 b 829 367 825 361 828 364 b 832 372 831 368 832 371 b 818 386 831 382 826 386 l 815 386 l 656 347 b 660 358 657 351 658 354 b 668 381 664 365 667 374 l 671 404 b 647 464 671 428 663 449 b 568 500 628 483 601 496 b 461 508 535 506 499 508 b 364 506 429 508 397 507 b 333 504 354 504 343 504 l 253 501 b 139 515 204 501 167 506 b 114 547 122 519 114 531 b 150 625 114 563 126 589 b 318 774 188 672 243 722 b 518 899 392 825 458 867 b 574 924 531 906 550 914 b 640 940 597 932 619 938 l 649 940 l 665 939 b 672 936 668 938 671 938 b 676 932 674 935 675 933 b 679 917 678 929 679 924 b 668 874 679 907 675 893 l 667 868 b 671 858 667 864 668 861 b 679 854 672 856 675 854 b 688 857 682 854 685 856 b 692 863 689 858 690 861 b 707 918 701 885 707 903 b 699 947 707 929 704 939 b 671 965 692 957 682 963 l 647 967 l 638 967 b 564 947 613 963 588 957 b 506 922 539 938 519 929 b 303 796 446 890 378 847 b 129 642 226 743 168 692 b 88 547 101 604 88 572 b 129 492 88 521 101 503 b 239 476 158 482 196 476 b 332 479 268 476 299 478 l 353 479 b 456 482 388 481 422 482 b 563 475 496 482 531 479 b 629 447 593 469 615 460 b 644 407 639 438 644 425 l 642 388 b 625 340 638 371 632 356 b 346 238 524 314 431 281 b 89 51 263 194 178 132 z "},"T":{"ha":836,"x_min":0,"x_max":0,"o":"m 667 894 b 668 896 668 894 668 896 b 678 917 674 906 676 913 b 679 918 678 918 678 918 b 681 921 679 919 679 919 b 681 925 681 922 681 924 l 679 931 b 947 940 776 938 865 940 b 1176 933 1032 940 1108 938 b 1351 918 1243 929 1301 924 b 1363 922 1356 918 1360 919 b 1367 932 1365 925 1367 928 b 1363 942 1367 936 1365 939 b 1353 944 1360 943 1357 944 l 1351 944 b 999 965 1264 956 1146 963 b 943 967 981 965 963 965 b 472 938 808 967 651 957 b 315 911 426 932 374 924 b 147 869 256 899 200 885 b 25 818 94 854 54 838 b -4 785 10 808 0 797 l -6 776 b 10 746 -6 767 0 756 b 18 743 13 744 15 743 b 29 747 22 743 26 744 b 32 756 31 749 32 751 b 26 765 32 760 31 764 b 21 771 24 768 22 769 b 19 775 19 772 19 774 l 21 778 b 26 786 22 779 24 782 b 40 797 29 789 33 793 b 154 844 64 813 103 829 b 319 886 206 860 261 874 b 476 911 378 897 431 906 b 647 928 536 918 593 924 l 639 918 b 606 878 629 906 618 893 b 574 835 593 863 583 847 l 572 826 b 576 818 572 822 574 819 b 585 814 578 815 581 814 l 590 815 b 156 -57 401 490 257 200 b 154 -58 154 -58 154 -58 b 154 -61 154 -60 154 -60 b 158 -71 154 -65 156 -68 b 167 -75 160 -74 163 -75 b 175 -72 169 -75 172 -74 b 179 -67 176 -71 178 -68 b 385 388 233 68 301 219 b 667 894 467 553 561 722 z "},"U":{"ha":607,"x_min":0,"x_max":0,"o":"m 411 -89 b 419 -87 411 -89 418 -89 b 424 -85 422 -87 424 -86 b 426 -82 426 -83 426 -82 b 428 -78 428 -81 428 -79 l 428 -64 b 433 -12 428 -54 431 -36 b 475 197 440 35 453 106 b 518 356 486 244 501 297 b 542 393 526 368 535 379 b 754 931 625 544 683 722 l 754 935 b 742 947 754 942 749 947 b 729 940 736 947 731 944 b 494 365 618 725 544 529 b 190 -4 390 188 278 57 b 89 -46 149 -32 114 -46 l 76 -44 b 44 -21 63 -40 53 -35 b 28 36 36 -8 31 10 b 26 81 26 49 26 63 b 117 558 26 171 44 333 b 210 831 150 663 178 751 b 244 931 229 883 240 914 l 247 942 l 246 947 b 240 957 246 949 246 953 b 233 958 239 958 236 958 l 226 958 l 222 954 b 217 947 219 953 218 950 b 165 857 201 928 176 881 l 164 851 b 176 838 164 844 169 838 b 185 842 181 838 183 839 l 185 840 b 92 567 153 760 125 671 b 0 81 18 339 0 174 b 1 33 0 63 0 46 b 24 -36 4 6 11 -18 b 69 -69 35 -53 51 -65 l 90 -72 b 204 -26 124 -72 163 -56 b 468 272 285 29 378 132 b 450 203 463 250 454 224 b 407 -10 426 111 414 39 l 401 -62 l 401 -79 l 403 -82 b 406 -85 403 -83 404 -83 z m 569 510 b 649 708 593 572 618 639 b 569 510 624 639 597 571 z "},"V":{"ha":482,"x_min":0,"x_max":0,"o":"m 179 815 l 179 818 l 192 921 l 192 938 l 190 942 b 181 949 189 944 186 947 b 175 949 179 949 176 949 b 171 946 174 947 172 947 b 168 944 169 944 169 944 b 167 943 167 943 167 943 b 167 940 167 942 167 942 b 165 939 167 939 167 939 b 165 936 165 938 165 938 b 164 933 164 935 164 935 b 156 906 161 926 158 918 l 150 889 b 146 878 149 885 147 882 b 133 843 142 863 138 851 b 132 842 133 842 133 842 b 132 839 132 840 132 840 b 131 836 131 838 131 838 b 135 828 131 832 132 829 b 144 824 138 825 140 824 b 150 825 146 824 149 824 b 154 828 151 826 153 826 l 153 822 l 153 821 b 90 378 138 651 117 504 b 32 -25 67 261 47 126 b 26 -65 28 -40 26 -54 b 29 -85 26 -72 28 -79 b 43 -103 32 -93 36 -99 b 56 -106 47 -104 51 -106 b 65 -104 60 -106 63 -106 b 107 -75 78 -100 92 -90 b 157 -18 122 -60 139 -40 b 281 151 194 29 236 86 b 408 342 325 217 368 279 b 763 932 507 490 625 688 b 764 933 763 933 763 933 b 765 936 764 935 764 935 b 765 939 765 938 765 938 b 763 949 765 943 764 946 b 751 951 760 950 756 951 l 751 950 b 744 949 749 950 746 950 b 740 943 743 947 742 944 b 386 354 603 699 485 503 b 260 164 346 292 303 229 b 138 -3 215 99 175 43 b 89 -58 119 -26 103 -44 b 57 -82 74 -71 64 -79 l 56 -82 l 54 -79 l 53 -68 b 57 -31 53 -60 54 -47 l 57 -28 b 117 371 72 122 93 256 b 179 815 143 497 163 646 z "},"W":{"ha":631,"x_min":0,"x_max":0,"o":"m 317 1 l 317 -1 b 322 -40 317 -18 318 -31 b 329 -54 324 -46 326 -50 b 344 -62 333 -58 339 -61 b 371 -49 356 -62 364 -58 b 396 -18 379 -42 388 -31 b 522 242 431 38 472 124 b 756 826 604 438 682 632 b 807 960 774 875 792 919 l 807 964 b 804 975 807 968 806 972 b 794 978 801 976 799 978 l 793 976 b 788 974 792 976 789 975 b 782 968 786 972 783 969 b 728 826 765 926 747 879 b 499 251 654 635 578 443 b 374 -6 449 133 407 47 l 369 -11 b 353 -32 363 -21 357 -28 l 349 -36 l 347 -36 l 346 -33 b 343 -3 344 -28 343 -18 l 439 714 b 442 722 440 717 442 719 b 440 739 442 728 442 733 b 439 746 440 740 440 743 b 432 754 438 749 436 751 b 424 757 429 756 426 757 b 413 754 419 757 417 756 l 401 744 b 350 661 388 729 371 701 b 196 342 306 576 254 469 b 131 201 174 293 151 247 b 49 24 99 131 72 72 l 31 -8 l 197 864 b 203 904 201 882 203 894 l 203 913 b 203 917 203 914 203 915 b 200 921 201 918 201 919 b 196 926 199 922 197 925 b 188 928 193 928 190 928 l 186 928 b 176 922 181 926 178 925 l 172 917 b 158 888 168 910 163 900 b 143 847 153 875 147 861 l 143 844 b 147 835 143 840 144 838 b 156 831 149 832 151 831 b 165 835 160 831 164 832 l -6 -61 l -6 -65 b -3 -75 -6 -68 -4 -71 b 1 -79 -1 -76 0 -78 b 8 -82 3 -81 6 -82 l 10 -82 b 19 -79 15 -82 18 -81 b 24 -75 21 -78 22 -76 b 26 -71 25 -74 25 -72 b 28 -69 28 -71 28 -71 b 71 13 38 -54 53 -28 b 168 221 99 69 131 139 b 219 331 185 257 201 293 b 374 649 278 458 329 564 b 414 717 390 681 404 704 z "},"X":{"ha":856,"x_min":0,"x_max":0,"o":"m 239 1011 b 228 1001 235 1011 231 1007 b 225 978 226 994 225 986 b 235 914 225 960 228 939 b 275 785 243 876 257 833 b 422 451 313 683 363 572 l 453 394 l 296 239 b 97 57 218 165 151 104 b 33 4 72 35 51 17 l 29 1 l 63 101 b 64 104 64 103 64 103 b 64 107 64 106 64 106 b 61 117 64 111 63 114 b 51 119 58 118 56 119 b 44 118 49 119 46 119 b 39 110 42 117 40 114 l -7 -24 l -7 -28 b -3 -36 -7 -32 -6 -35 b 6 -40 -1 -39 1 -40 b 18 -36 10 -39 14 -37 l 24 -33 l 46 -17 b 113 38 64 -4 86 14 b 311 221 167 83 233 144 b 463 369 360 267 411 317 b 607 119 511 279 558 196 b 772 -90 671 21 726 -50 b 776 -92 774 -92 775 -92 b 781 -93 778 -93 779 -93 b 790 -89 785 -93 788 -92 b 794 -81 793 -87 794 -85 b 790 -72 794 -76 793 -74 b 789 -69 790 -71 790 -71 b 629 133 746 -33 693 35 b 482 389 581 213 531 297 b 788 729 592 503 694 617 b 861 818 814 761 839 792 b 939 914 896 860 922 892 b 943 919 940 915 942 918 b 954 938 947 926 951 932 b 957 942 956 939 956 940 b 957 949 957 943 957 946 b 956 957 957 951 957 954 b 953 961 954 958 954 960 b 947 964 951 963 949 963 l 940 965 l 935 964 b 922 960 931 964 926 963 b 893 944 915 957 906 951 b 889 942 892 943 890 943 b 885 938 888 940 886 939 b 882 931 883 936 882 933 b 886 922 882 926 883 924 b 896 918 889 919 892 918 l 903 919 b 910 925 906 921 908 924 b 917 928 911 926 914 926 b 849 844 901 908 879 881 b 767 746 825 815 797 783 b 469 414 676 635 576 524 b 443 464 460 431 451 447 b 297 793 383 585 335 694 b 257 919 279 842 265 885 b 249 979 251 944 249 964 l 250 994 l 251 996 l 251 999 b 247 1008 251 1003 250 1006 b 239 1011 244 1010 242 1011 z "},"Y":{"ha":1294,"x_min":0,"x_max":0,"o":"m 81 -867 b 50 -858 68 -867 58 -862 b 26 -811 38 -850 29 -836 l 26 -800 b 108 -581 26 -753 51 -675 b 407 -221 171 -478 268 -356 b 904 90 526 -106 718 13 b 363 -693 761 -190 585 -456 b 113 -861 256 -794 169 -847 b 81 -867 100 -865 90 -867 z m 150 65 l 150 56 b 163 17 150 39 154 26 b 193 6 171 10 181 6 l 207 7 b 335 69 240 14 283 35 b 689 342 439 140 557 232 l 711 360 b 724 371 715 364 719 367 b 1057 624 858 483 969 567 b 1058 625 1058 624 1058 624 b 1110 649 1079 636 1096 644 b 1129 653 1119 651 1125 653 l 1133 653 l 1136 650 l 1136 638 b 1119 581 1136 626 1131 607 b 922 126 1063 426 996 275 b 389 -201 710 42 532 -68 b 88 -567 250 -339 150 -460 b 1 -799 31 -662 1 -740 l 1 -814 b 36 -881 4 -843 15 -865 b 81 -892 49 -887 64 -892 b 118 -886 93 -892 106 -890 b 379 -714 185 -871 271 -814 l 382 -711 b 940 104 608 -462 794 -192 b 1203 175 1036 142 1124 165 b 1213 179 1207 175 1210 176 b 1215 188 1214 181 1215 183 b 1213 197 1215 192 1214 194 b 1203 200 1210 199 1207 200 l 1201 200 b 957 139 1125 192 1044 171 b 1142 568 1026 279 1088 422 b 1144 574 1143 569 1144 572 b 1163 636 1154 600 1161 621 b 1160 658 1163 644 1161 651 b 1144 675 1157 665 1151 671 b 1128 679 1139 678 1133 679 b 1100 674 1119 679 1110 678 b 1043 644 1085 668 1065 658 b 694 379 950 585 835 497 b 321 92 554 263 429 167 b 201 32 268 57 228 38 l 193 32 b 181 35 186 32 182 33 b 178 43 179 36 179 39 b 175 56 176 46 175 50 l 175 63 b 303 501 183 165 226 311 b 564 965 381 692 468 846 b 568 975 567 968 568 971 b 564 985 568 979 567 982 b 554 988 561 986 558 988 l 550 988 b 544 983 549 986 546 985 b 279 513 446 860 357 703 b 150 65 201 322 158 174 z "},"Z":{"ha":1363,"x_min":0,"x_max":0,"o":"m 107 -210 l 1014 693 b 1017 696 1015 693 1015 694 b 1192 876 1100 774 1158 833 b 1225 932 1208 897 1219 915 l 1226 944 b 1213 976 1226 957 1222 968 b 1161 990 1200 986 1183 990 l 1149 990 b 1092 988 1132 990 1113 989 b 1081 986 1088 986 1085 986 b 863 953 1024 979 951 968 b 819 946 849 951 835 949 b 528 882 718 929 621 908 b 201 764 435 856 325 815 b 193 751 196 761 193 757 b 197 743 193 747 194 744 b 206 739 199 740 201 739 l 211 739 b 535 857 335 790 443 831 b 824 919 626 883 722 904 b 1083 960 933 939 1019 953 b 1144 964 1107 963 1128 964 l 1160 964 b 1197 956 1179 963 1192 960 b 1200 953 1199 954 1199 954 b 1201 947 1201 951 1201 949 l 1200 939 b 1172 892 1197 929 1188 913 b 996 711 1140 851 1082 792 l 90 -189 b 14 -260 53 -221 28 -244 b 10 -262 13 -261 11 -261 b -1 -279 6 -267 1 -272 l -3 -287 l 4 -297 b 13 -300 7 -299 10 -300 l 18 -300 b 61 -286 28 -299 43 -294 b 79 -279 67 -285 72 -282 b 86 -276 81 -278 83 -278 b 200 -232 115 -264 154 -250 b 606 -108 300 -192 435 -151 b 1206 -28 776 -67 976 -40 b 1215 -24 1210 -28 1213 -26 b 1218 -15 1217 -22 1218 -19 b 1215 -4 1218 -11 1217 -7 b 1206 -1 1213 -3 1210 -1 l 1204 -1 b 600 -83 972 -14 771 -40 b 190 -207 428 -126 292 -167 b 136 -228 171 -214 153 -221 b 69 -254 110 -239 88 -247 l 50 -261 z "},"a":{"ha":469,"x_min":0,"x_max":0,"o":"m 261 0 b 306 10 275 0 290 3 b 497 171 360 32 426 89 b 501 179 500 172 501 176 b 488 193 501 186 494 193 b 478 188 485 193 481 190 b 296 33 408 108 343 53 b 263 25 282 28 271 25 b 246 29 256 25 250 26 b 224 72 235 33 226 46 l 224 86 b 251 211 224 126 236 174 b 285 286 268 256 285 286 l 286 289 l 286 293 b 274 306 286 300 281 306 b 263 300 268 306 264 303 l 250 274 b 232 354 250 310 244 338 b 200 369 224 364 211 369 l 194 369 b 164 361 185 369 175 365 b 29 214 117 339 65 278 b -25 88 0 161 -17 119 b -29 57 -28 76 -29 67 b -12 14 -29 39 -24 24 b 18 3 -4 7 7 3 b 53 11 29 3 40 6 b 139 72 79 22 107 43 b 207 156 157 90 182 124 b 197 88 201 132 197 110 l 199 69 b 233 6 201 39 213 15 b 261 0 242 1 251 0 z m 18 29 b 6 33 11 29 7 31 b -1 57 1 38 -1 44 b 1 82 -1 64 -1 72 b 53 201 7 110 24 150 b 175 339 86 261 139 321 b 197 344 185 343 192 344 b 211 338 203 343 207 342 b 225 271 218 328 225 307 l 225 253 b 232 240 225 246 228 242 b 121 92 199 183 150 119 b 43 36 92 63 64 44 b 18 29 33 31 24 29 z "},"b":{"ha":381,"x_min":0,"x_max":0,"o":"m 1 0 b 160 61 47 4 92 25 b 350 294 279 126 342 225 l 351 310 b 344 339 351 321 349 331 b 311 365 339 353 326 363 l 303 365 b 199 311 275 365 242 349 b 13 78 165 282 81 190 b 240 708 40 258 135 468 l 242 714 b 229 726 242 721 236 726 l 231 728 b 218 719 225 728 219 724 b -19 19 100 453 -7 219 b -10 6 -19 13 -15 8 b 1 0 -6 1 -3 0 z m 17 31 b 217 292 85 156 183 263 b 304 339 257 326 288 339 l 308 339 b 322 328 315 338 319 335 b 325 308 324 324 325 317 l 325 297 b 149 85 319 242 261 146 b 17 31 89 53 51 36 z "},"c":{"ha":317,"x_min":0,"x_max":0,"o":"m 82 253 l 85 256 b 154 331 110 289 133 314 b 203 358 176 349 193 357 b 211 356 207 358 210 357 b 214 353 213 354 213 354 b 217 344 215 351 215 349 l 218 331 b 207 269 218 317 214 296 l 207 267 b 211 257 207 263 208 260 b 219 253 213 254 215 253 b 232 263 225 253 229 256 b 244 329 240 289 244 311 b 242 350 244 336 243 343 b 228 376 240 363 235 371 b 206 383 221 381 213 383 l 200 383 b 138 351 181 382 160 371 b 64 272 115 332 90 306 b -22 88 7 194 -22 133 b -19 61 -22 78 -21 69 b 21 13 -12 39 1 22 b 65 1 35 6 50 1 l 81 3 b 208 50 118 6 161 21 b 350 176 254 78 301 119 b 353 186 351 179 353 182 b 350 196 353 190 351 193 b 340 199 347 197 344 199 b 335 197 339 199 336 199 b 329 193 333 196 331 194 b 193 72 283 139 238 99 b 78 29 149 46 110 32 l 65 28 b 32 36 53 28 42 31 b 6 68 19 42 10 53 l 3 86 b 21 156 3 104 8 126 b 82 253 32 182 53 215 z "},"d":{"ha":439,"x_min":0,"x_max":0,"o":"m 240 3 b 285 13 254 3 269 6 b 472 174 338 35 401 92 b 476 182 475 175 476 178 b 463 194 476 189 471 194 b 453 190 460 194 457 193 b 275 36 383 110 319 56 b 242 28 261 31 250 28 b 224 32 235 28 228 29 b 199 75 213 36 204 50 l 199 83 l 201 124 b 219 206 206 146 211 175 b 257 329 229 242 243 286 l 278 369 b 396 715 338 493 386 624 b 382 729 396 724 389 729 l 376 728 b 369 721 371 725 371 724 l 365 714 l 356 694 l 329 629 b 258 428 308 575 283 503 l 232 339 b 221 318 229 332 225 325 l 221 326 b 196 361 217 343 208 356 b 179 365 190 364 185 365 b 156 361 171 365 164 364 b 117 336 143 356 129 347 b -24 139 61 290 1 206 b -44 53 -37 101 -44 75 l -44 47 b -36 18 -43 36 -42 26 b -12 4 -31 11 -21 6 l -6 4 b 43 22 10 4 26 11 b 101 75 63 35 82 53 b 194 213 129 107 161 156 b 176 128 186 181 181 151 b 172 88 174 111 172 99 l 174 71 b 213 8 179 40 192 18 b 240 3 221 4 231 3 z m -6 31 l -8 31 b -14 33 -12 31 -12 31 b -18 49 -17 36 -18 40 l -18 53 b 1 131 -18 69 -12 96 b 132 315 24 190 83 275 b 165 336 144 325 157 333 b 178 339 171 339 175 339 b 185 338 181 339 183 339 b 196 319 189 336 193 332 b 199 296 197 314 199 306 l 197 274 b 82 93 156 197 114 129 b 28 44 64 72 44 56 b -6 31 13 35 0 31 z "},"e":{"ha":347,"x_min":0,"x_max":0,"o":"m 81 251 l 83 254 b 200 344 128 307 167 338 l 213 347 b 224 343 219 347 222 346 b 226 342 225 342 225 342 b 226 338 226 340 226 339 b 226 331 226 336 226 333 b 222 318 225 326 224 322 b 157 265 213 296 190 278 b 78 246 133 256 107 250 b 81 250 79 247 79 249 z m 110 0 b 238 47 147 4 190 19 b 379 175 285 75 332 118 b 383 183 382 176 383 179 b 381 193 383 188 382 190 b 369 196 378 194 374 196 b 365 196 368 196 367 196 b 360 192 364 194 361 193 b 224 71 314 138 268 97 b 108 26 179 44 140 29 l 97 25 b 53 36 82 25 67 29 b 19 68 38 43 26 54 b 13 99 15 76 13 86 b 58 217 13 128 28 167 b 167 242 94 221 131 229 b 247 310 206 254 232 278 b 253 339 251 319 253 329 b 243 363 251 347 249 356 b 221 372 236 368 229 371 l 214 372 b 193 369 207 372 200 371 b 63 269 153 360 108 326 b -14 101 11 200 -14 144 b -4 57 -14 85 -11 69 b 40 14 6 36 21 22 b 97 0 58 4 78 0 z "},"f":{"ha":383,"x_min":0,"x_max":0,"o":"m 224 382 b 254 461 235 411 244 438 b 296 567 272 508 286 543 b 317 619 304 590 311 607 b 224 382 294 551 264 472 z m 29 -310 l 29 -307 b 28 -297 28 -306 28 -301 b 25 -279 26 -293 26 -287 b 54 -114 29 -225 39 -171 b 121 99 69 -58 92 13 b 139 97 128 99 135 99 b 146 65 143 90 146 79 b 113 -132 139 -11 128 -76 b 63 -262 96 -189 79 -232 b 29 -310 46 -294 35 -310 z m 331 710 b 324 699 329 707 326 703 b 306 661 319 692 313 679 b 274 585 299 643 288 618 b 251 528 268 571 261 551 b 114 154 217 449 171 325 b 81 163 100 158 89 161 b 51 165 71 164 61 164 l 32 165 b 17 164 25 165 21 165 l 14 163 b 7 158 11 161 8 160 b 3 149 4 157 3 153 b 7 136 4 142 6 138 b 24 126 13 132 18 128 b 49 118 29 124 38 121 l 97 106 b 1 -283 33 -81 1 -210 b 7 -319 1 -301 3 -312 b 31 -335 10 -326 18 -332 l 38 -333 b 126 -189 72 -312 101 -265 b 174 64 150 -112 167 -29 b 168 97 174 76 172 88 l 193 97 b 332 119 243 97 289 104 b 433 185 375 135 408 156 b 436 193 435 186 436 189 b 433 203 436 197 435 200 b 424 206 431 204 428 206 b 418 206 422 206 419 206 b 413 201 417 204 414 203 b 322 144 392 178 363 158 b 192 124 282 131 239 124 l 157 125 b 142 143 153 132 147 138 b 140 143 140 143 140 143 b 138 144 139 143 139 143 l 149 181 l 151 182 b 231 329 175 218 201 267 b 308 514 258 390 285 451 b 351 626 325 554 339 592 b 368 703 363 661 368 686 b 367 718 368 708 368 714 b 354 725 365 722 361 725 b 350 722 353 724 351 722 b 346 721 349 721 347 721 b 343 721 344 721 344 721 b 340 718 342 719 342 719 b 336 715 339 717 338 717 b 332 713 335 714 333 714 b 331 710 332 711 332 711 z "},"g":{"ha":433,"x_min":0,"x_max":0,"o":"m 24 -440 b 46 -425 33 -439 39 -432 b 67 -392 53 -417 60 -406 b 269 83 150 -240 222 -61 b 463 178 324 128 388 163 b 474 192 468 178 474 183 b 460 204 474 199 468 204 l 457 204 b 285 126 392 190 335 163 b 326 290 307 197 322 254 l 326 315 b 319 335 326 322 326 328 b 307 340 317 338 313 340 b 296 338 303 340 299 339 b 289 331 293 336 292 332 b 276 353 288 339 283 347 b 250 361 268 357 260 360 b 221 358 242 361 231 360 b 83 282 178 350 124 322 b -7 156 40 236 10 192 b -21 106 -15 136 -19 119 b -3 69 -21 90 -15 76 b 15 65 3 67 10 65 b 42 71 24 65 32 67 b 103 107 58 78 79 89 b 299 306 151 144 217 207 b 300 307 300 306 300 306 l 300 293 b 258 126 296 260 281 200 l 247 100 b 39 -208 147 14 79 -104 b -6 -394 8 -285 -6 -353 l -6 -400 b 0 -426 -4 -411 -4 -419 b 8 -436 1 -431 4 -435 b 24 -440 13 -439 18 -440 z m 14 90 l 10 92 b 6 104 7 93 6 96 b 17 144 6 114 10 128 b 103 264 32 178 60 221 b 225 332 138 300 189 325 l 243 335 b 261 331 251 335 258 332 b 264 326 263 329 264 329 b 260 310 264 322 264 317 l 260 300 b 88 128 188 218 129 160 b 32 94 65 111 46 100 b 14 90 24 92 18 90 z m 22 -411 l 21 -400 l 21 -394 b 63 -217 21 -360 33 -292 b 228 43 96 -131 151 -33 b 44 -379 181 -90 118 -246 b 26 -408 38 -393 31 -401 z "},"h":{"ha":463,"x_min":0,"x_max":0,"o":"m 103 390 b 151 517 124 444 140 488 b 176 582 163 546 171 568 b 192 615 182 594 188 606 b 193 619 192 617 192 618 b 103 390 172 554 142 478 z m 211 713 l 211 714 l 208 711 b 206 707 207 710 207 708 b 199 696 204 706 201 701 b 150 585 192 683 175 647 b 96 439 140 558 122 510 b 7 199 69 368 39 288 l 7 196 b 6 193 6 194 6 194 b 4 190 4 192 4 192 l -46 53 l -53 28 l -53 18 b -51 15 -51 17 -51 17 b -50 11 -51 14 -51 13 b -42 6 -47 8 -44 7 l -37 6 b -32 7 -36 6 -33 6 b -29 8 -31 7 -31 7 l -28 8 l -21 14 l -6 31 b 54 110 10 50 31 76 b 88 157 64 125 75 142 b 197 300 128 214 164 261 b 238 338 214 318 228 331 b 242 340 239 339 240 339 b 244 340 243 340 243 340 b 251 301 249 331 251 317 b 243 242 251 283 249 264 b 221 160 236 215 229 188 b 207 114 215 144 211 129 b 194 58 200 94 196 76 l 193 40 b 199 15 193 31 194 22 b 236 -6 207 1 219 -6 b 299 14 253 -6 274 1 b 399 82 328 28 361 50 b 504 185 436 113 471 147 b 507 193 506 186 507 189 b 504 203 507 197 506 200 b 494 206 501 204 499 206 b 489 206 493 206 490 206 b 483 201 488 204 485 203 b 379 101 451 164 417 131 b 286 38 342 71 311 50 b 235 21 263 26 246 21 b 226 22 231 21 228 21 b 222 26 225 24 224 25 b 219 44 221 31 219 36 l 219 56 b 232 107 222 71 226 88 b 242 142 235 118 238 129 b 268 236 251 172 261 204 b 278 303 275 260 278 282 b 267 353 278 321 274 338 b 258 364 265 357 263 361 b 246 367 254 365 250 367 b 224 360 238 367 231 364 b 178 317 210 351 194 338 b 67 172 143 276 106 228 l -14 63 l 31 188 b 108 333 54 225 81 274 b 185 514 136 393 161 453 b 238 665 210 576 228 626 b 244 701 242 679 244 692 l 244 707 b 243 715 244 710 244 713 b 239 722 242 717 240 719 b 231 725 236 724 233 725 l 228 722 b 221 722 225 722 222 722 b 217 718 219 721 218 719 z "},"i":{"ha":247,"x_min":0,"x_max":0,"o":"m 51 1 b 96 13 65 1 81 6 b 288 172 150 35 217 92 b 290 182 289 175 290 178 b 278 194 290 189 285 194 b 268 190 274 194 271 193 b 86 36 199 110 132 56 b 50 28 72 31 60 28 b 35 31 44 28 39 28 b 14 74 25 36 17 49 l 14 86 b 68 304 14 149 47 250 l 83 342 b 85 347 85 343 85 346 b 72 360 85 354 79 360 b 60 353 67 360 61 357 b 44 314 60 353 53 338 b -14 89 22 258 -14 160 l -12 71 b 24 7 -8 40 3 18 b 51 1 32 3 42 1 z m 72 376 l 81 378 b 104 393 96 389 88 383 b 110 404 107 394 110 399 b 97 418 110 411 104 418 l 89 415 l 67 400 b 60 389 63 399 60 394 b 72 376 60 382 65 376 z "},"j":{"ha":215,"x_min":0,"x_max":0,"o":"m -176 -349 l -167 -347 b -150 -326 -158 -342 -156 -335 b -133 -286 -144 -317 -139 -303 b -31 -17 -94 -181 -62 -100 b 239 182 42 63 140 135 b 247 194 243 183 247 189 b 233 207 247 201 242 207 l 228 206 b -7 44 144 165 63 108 b 115 342 47 183 93 293 l 117 347 b 113 357 117 351 115 354 b 96 364 113 357 107 364 l 93 364 b 81 351 88 364 81 358 b 86 340 81 347 82 344 b -53 -1 61 283 10 157 b -137 -118 -87 -39 -118 -78 b -196 -312 -176 -200 -194 -272 b -193 -337 -196 -322 -196 -329 b -183 -347 -192 -340 -189 -344 z m -167 -300 b -81 -75 -162 -258 -143 -164 b -167 -300 -111 -156 -140 -239 z m 92 382 b 100 385 96 382 99 383 l 122 400 b 129 411 125 400 129 406 b 115 424 129 418 122 424 b 108 421 115 424 108 422 l 85 406 b 79 396 82 406 79 400 b 92 382 79 388 85 382 z "},"k":{"ha":410,"x_min":0,"x_max":0,"o":"m -24 -8 l -17 -7 b -3 4 -11 -4 -7 0 b 76 104 15 22 43 60 l 88 118 l 88 111 b 90 92 88 104 89 97 b 147 21 101 63 122 38 b 208 1 165 8 186 1 b 236 6 218 1 226 3 b 339 69 268 14 303 39 b 444 176 376 101 413 140 b 447 186 446 179 447 182 b 435 199 447 193 442 199 b 425 194 431 199 428 197 b 322 90 394 158 357 119 b 229 31 288 60 253 38 b 208 28 222 29 215 28 b 161 43 190 28 175 33 b 115 101 140 56 125 76 b 114 110 114 104 114 107 b 118 129 114 115 115 122 b 143 172 122 142 132 157 b 236 269 168 204 203 239 l 318 343 l 328 353 l 332 358 b 335 364 333 360 335 361 l 333 371 b 325 379 332 375 328 378 b 318 381 322 381 319 381 l 311 378 b 296 371 308 376 303 375 b 56 119 214 329 124 210 b -11 35 26 81 4 53 l -11 38 b 144 436 21 151 85 304 b 271 707 204 567 257 674 l 271 713 b 258 725 271 719 265 725 b 246 717 253 725 249 722 b 121 446 235 689 181 578 b -36 44 61 315 -4 163 l -42 19 l -42 11 b -39 0 -42 8 -42 4 b -28 -8 -37 -4 -32 -7 z "},"l":{"ha":231,"x_min":0,"x_max":0,"o":"m 94 358 b 201 610 132 454 167 538 b 94 358 176 539 140 456 z m 200 669 b 154 567 199 668 183 635 b 106 457 125 500 108 463 b 14 203 71 372 40 288 l 11 197 b 10 196 11 196 11 196 b 10 193 10 194 10 194 b 8 190 8 192 8 192 l 10 188 b -17 99 0 157 -10 128 b -24 50 -21 79 -24 63 b -22 32 -24 43 -24 38 b -11 13 -21 24 -17 17 b 6 1 -7 7 -1 3 l 15 0 b 43 7 25 0 35 3 b 79 22 56 11 68 17 b 83 25 81 22 82 24 b 258 182 133 56 192 108 b 261 190 260 183 261 186 b 258 200 261 194 260 197 b 249 203 256 201 253 203 b 239 199 244 203 242 201 b 67 46 174 126 117 75 l 65 44 b 33 31 54 39 43 35 b 14 26 25 28 18 26 l 10 26 b 7 28 8 26 8 26 b 4 31 6 28 6 29 b 1 36 3 32 3 33 l 0 47 b 7 92 0 57 3 72 b 36 192 14 124 24 157 b 129 369 65 240 97 300 b 213 565 161 439 189 504 b 257 697 238 628 253 672 l 258 706 b 258 711 258 707 258 710 b 256 717 257 713 257 714 b 254 721 256 718 256 719 b 249 724 253 722 250 722 l 240 724 b 236 721 239 722 238 722 b 235 719 235 721 235 721 l 233 719 l 232 718 b 208 683 225 711 218 700 b 200 669 206 679 203 675 z "},"m":{"ha":664,"x_min":0,"x_max":0,"o":"m 183 0 b 196 4 190 0 193 3 l 201 10 l 217 26 b 308 157 238 54 272 104 b 418 297 346 208 386 263 b 458 333 435 315 449 329 b 467 336 464 336 467 336 l 468 336 l 468 335 b 476 294 474 325 476 311 b 468 238 476 278 474 258 b 433 115 460 197 444 154 b 422 64 428 97 424 79 l 421 49 b 428 21 421 39 424 29 b 465 3 435 8 449 3 b 526 24 482 4 501 11 b 699 186 582 49 643 114 b 701 194 700 188 701 190 b 688 207 701 201 694 207 b 678 201 685 207 681 206 b 515 46 624 131 563 68 b 464 29 492 35 474 29 l 458 29 b 450 33 453 29 451 31 b 447 47 449 36 447 40 l 449 60 b 458 108 450 74 454 90 b 494 232 469 146 485 190 b 501 294 499 254 501 275 b 490 347 501 314 499 332 b 469 363 488 356 479 361 l 465 363 b 446 357 458 363 451 360 b 399 315 431 349 415 335 b 286 171 364 278 324 224 l 214 71 l 265 208 b 282 282 269 218 278 250 l 283 299 b 279 325 283 308 282 317 b 264 342 276 332 271 339 b 253 343 260 343 257 343 b 239 340 249 343 243 343 b 192 306 225 336 210 324 b 129 239 172 288 151 265 b 4 63 88 189 43 126 b 21 131 8 83 11 101 l 60 261 l 85 335 l 85 343 b 78 354 85 347 82 351 b 69 357 75 357 72 357 l 63 356 b 46 347 56 354 50 350 b 42 338 43 344 42 340 b 54 324 42 329 47 324 l 36 269 b -4 138 24 231 8 182 b -29 32 -17 93 -26 56 l -31 25 l -29 17 b -24 7 -29 14 -28 11 b -14 4 -22 6 -17 4 l -10 4 b 4 15 -1 6 0 10 b 17 35 8 19 13 26 b 150 222 57 101 106 169 b 210 288 172 247 193 271 b 249 317 228 303 243 314 l 254 318 l 256 315 b 257 296 257 313 257 304 l 257 285 b 242 217 254 257 243 221 l 178 46 l 171 24 l 171 14 b 174 6 171 11 171 10 b 183 0 176 3 181 1 z "},"n":{"ha":446,"x_min":0,"x_max":0,"o":"m 249 4 b 260 6 253 4 257 4 b 318 31 275 8 294 17 b 486 183 369 63 425 106 b 489 192 488 185 489 188 b 476 204 489 199 483 204 b 465 199 472 204 469 203 b 304 53 406 124 354 85 b 256 31 282 39 265 32 l 247 31 l 244 32 b 243 47 243 33 243 39 l 243 58 b 253 107 244 71 249 89 b 286 235 264 146 278 192 b 293 294 290 256 293 275 b 281 351 293 315 289 335 b 260 368 276 360 268 365 l 253 368 b 235 364 246 368 240 367 b 185 324 218 357 203 343 b 72 181 150 288 110 233 l 10 89 b 97 344 43 176 74 264 b 99 354 99 347 99 350 b 92 365 97 357 96 363 b 82 368 89 368 85 368 l 76 367 b 60 358 68 364 64 361 b 54 347 56 354 54 351 b 68 335 54 340 61 335 b -32 50 40 243 7 147 b -39 29 -36 42 -37 35 b -40 19 -40 26 -40 24 b -37 11 -40 18 -40 15 b -28 7 -35 8 -31 7 l -25 7 b -15 11 -18 7 -17 10 b -10 17 -12 13 -11 15 b 4 35 -6 21 -1 28 b 94 165 25 63 58 114 b 204 306 132 218 172 272 b 246 340 221 324 236 336 l 253 343 l 258 339 b 267 297 264 329 267 314 b 260 239 267 279 264 260 b 228 114 253 199 239 153 l 217 61 l 215 47 b 222 19 215 38 218 28 b 238 6 225 14 231 8 b 249 4 242 4 244 4 z "},"o":{"ha":429,"x_min":0,"x_max":0,"o":"m -14 -26 b 125 40 29 -26 76 1 b 167 79 139 51 153 65 b 192 75 175 79 182 75 b 350 103 243 75 299 83 b 472 182 400 121 446 147 l 474 190 b 461 203 474 197 468 203 b 451 197 458 203 454 200 b 342 126 431 168 388 143 b 192 101 294 110 240 101 b 264 185 218 128 243 156 b 339 329 303 238 332 288 l 340 344 b 328 382 340 360 336 372 b 283 397 317 393 301 397 l 267 396 b 111 301 196 385 147 346 l 107 300 b -3 176 65 265 28 222 b -61 49 -33 131 -54 86 l -62 31 b -56 -1 -62 19 -61 8 b -18 -26 -51 -15 -35 -24 z m 158 104 b 83 131 126 110 99 117 b 65 164 72 140 68 150 b 82 217 65 176 69 193 b 129 282 92 236 110 260 b 235 329 164 311 201 329 l 239 329 b 253 343 247 329 253 336 b 239 356 253 350 247 356 l 215 354 b 269 369 233 361 250 367 l 283 371 l 296 369 b 308 364 301 368 306 367 b 315 344 311 361 315 354 l 313 333 b 243 200 308 301 282 251 b 158 104 219 168 189 136 z m -12 0 l -17 0 b -33 11 -26 1 -31 4 b -37 28 -36 15 -37 21 l -35 44 b 19 163 -31 75 -11 119 b 44 197 26 175 36 185 b 40 171 43 189 40 179 l 42 163 b 65 111 43 142 51 124 b 133 82 83 96 107 89 l 110 60 b -12 0 63 24 17 0 z "},"p":{"ha":300,"x_min":0,"x_max":0,"o":"m -171 -317 b -158 -308 -165 -317 -161 -314 b -35 14 -117 -192 -75 -87 b -1 8 -24 10 -12 8 b 97 36 31 8 64 19 b 214 122 143 60 188 93 b 279 263 258 174 279 224 b 269 304 279 278 276 292 b 211 338 258 325 236 338 b 131 301 186 336 158 325 b 39 203 97 272 67 239 b 88 351 57 253 74 303 l 88 356 b 75 368 88 363 82 368 b 63 358 69 368 65 365 b -25 111 39 278 8 196 b -183 -300 -93 -4 -144 -144 l -183 -304 b -171 -317 -183 -311 -178 -317 z m -3 35 b -25 38 -11 35 -18 36 b -1 99 -17 58 -10 79 b 147 281 42 171 90 232 b 211 311 172 303 194 311 b 246 292 228 311 239 304 b 251 263 250 285 251 275 b 194 140 251 232 236 189 b 85 60 171 114 128 81 b -3 35 53 44 22 35 z "},"q":{"ha":422,"x_min":0,"x_max":0,"o":"m 25 -431 l 39 -428 b 85 -378 57 -419 71 -403 b 117 -285 97 -353 110 -321 b 132 -149 124 -250 132 -199 l 132 -137 b 115 -39 132 -101 126 -68 b 132 -4 119 -26 126 -15 b 221 25 156 3 186 13 b 444 178 297 56 388 104 b 449 186 446 179 449 182 b 435 199 449 193 442 199 b 425 193 432 199 428 197 b 211 50 372 126 285 79 b 147 29 186 40 167 35 b 207 151 167 71 188 115 b 292 304 242 218 274 272 l 301 324 b 307 336 304 329 306 331 b 308 340 308 338 308 338 l 307 346 b 296 353 304 349 300 353 l 289 353 b 282 347 283 350 285 349 l 281 344 b 268 364 278 353 274 360 b 242 374 261 369 251 372 b 211 371 233 374 222 374 b 76 293 168 363 114 336 b -25 101 11 221 -24 149 b -17 68 -25 89 -24 78 b 13 54 -11 60 0 54 l 15 54 b 99 97 38 54 64 69 b 218 225 133 125 171 167 b 183 164 206 203 197 190 b 110 17 160 119 135 68 b 75 8 90 11 75 8 b 65 -4 71 8 65 3 b 69 -14 65 -8 67 -11 l 86 -36 b -3 -299 46 -125 13 -218 b -10 -365 -7 -325 -10 -347 b -6 -401 -10 -379 -8 -392 b 11 -426 -3 -412 3 -421 b 25 -431 15 -429 21 -431 z m 15 81 l 13 81 b 4 83 7 81 6 81 b 1 100 3 86 1 92 b 94 276 1 135 33 207 b 217 346 128 313 179 339 b 240 347 225 347 233 347 l 253 343 b 257 338 256 342 256 340 l 253 321 b 251 315 251 319 251 318 l 253 310 b 82 117 168 201 126 153 b 15 81 50 90 26 81 z m 29 -404 l 25 -404 b 19 -394 25 -404 22 -401 b 17 -368 18 -387 17 -379 b 24 -303 17 -351 18 -329 b 99 -72 36 -233 64 -153 b 107 -137 103 -92 106 -114 b 92 -279 107 -189 99 -243 b 61 -365 85 -314 74 -343 b 29 -404 50 -387 36 -400 z "},"r":{"ha":433,"x_min":0,"x_max":0,"o":"m -61 -15 b -50 -10 -56 -15 -51 -12 l -50 -8 b 81 208 -8 61 38 149 b 139 272 101 239 122 263 b 157 279 146 276 151 279 l 160 279 b 176 271 165 279 171 278 b 313 186 203 246 244 197 b 342 185 321 185 331 185 b 392 189 357 185 374 186 b 479 229 422 194 456 207 b 483 239 481 232 483 235 b 469 251 483 246 476 251 b 460 247 467 251 463 250 b 388 214 443 231 415 219 b 343 211 372 211 357 211 b 317 213 333 211 324 211 b 196 289 260 222 221 263 b 161 306 186 300 174 306 b 125 294 149 306 136 301 b 67 233 106 282 86 260 b 99 349 83 275 96 315 b 86 363 99 357 93 363 l 85 364 b 74 350 79 364 74 357 b 15 175 69 307 44 240 b -72 4 -15 111 -50 47 l -74 4 l -75 -3 b -61 -15 -75 -10 -69 -15 z "},"s":{"ha":342,"x_min":0,"x_max":0,"o":"m 40 24 b 42 26 40 25 42 25 b 182 114 68 53 115 82 b 115 38 167 83 144 58 b 38 0 86 17 60 4 l 21 -1 b 40 24 22 4 29 13 z m 217 156 b 218 161 218 157 218 160 b 217 168 218 164 218 167 b 169 213 208 193 193 207 b 101 219 146 217 122 219 l 86 218 l 74 219 b 68 221 72 219 69 219 b 63 222 65 221 64 221 l 61 222 l 61 224 b 74 247 63 228 67 236 b 118 290 85 261 100 275 b 171 326 136 306 153 317 b 192 336 175 329 182 332 b 221 342 201 339 211 340 b 235 339 229 342 233 340 l 236 339 l 236 335 l 233 321 b 232 319 232 319 232 319 b 232 315 232 318 232 317 b 236 307 232 311 233 308 b 244 303 238 304 240 303 b 257 311 250 303 254 306 b 263 335 261 321 263 328 b 254 357 263 343 260 350 b 238 367 250 361 244 365 b 218 368 231 368 225 368 l 218 369 b 183 363 206 368 194 367 b 158 351 172 358 164 354 b 53 264 117 329 82 300 b 36 231 43 251 38 240 l 35 224 b 46 203 35 215 39 208 b 71 196 54 199 63 196 b 101 194 82 194 92 194 b 163 190 122 194 143 193 b 183 181 171 188 178 185 b 192 160 188 176 190 169 b 190 151 192 157 192 154 b 189 144 189 149 189 146 b 176 140 185 143 181 142 b 161 133 171 139 165 136 b 24 44 99 103 53 74 b -4 7 8 29 0 17 l -6 -4 l -4 -11 b 8 -25 -1 -18 3 -22 b 24 -28 13 -26 18 -28 b 43 -25 31 -28 36 -26 b 85 -11 56 -22 69 -18 b 175 56 117 4 147 26 b 214 126 193 76 207 100 b 367 169 264 147 315 161 b 375 174 369 169 372 171 b 378 183 376 176 378 179 b 375 193 378 188 376 190 b 365 196 372 194 369 196 l 363 196 b 217 156 314 189 265 175 z "},"t":{"ha":235,"x_min":0,"x_max":0,"o":"m 21 3 b 79 24 33 3 53 10 l 82 25 b 263 185 133 56 194 108 b 265 193 264 186 265 189 b 253 206 265 201 261 206 b 242 201 249 206 244 204 b 38 32 167 118 99 61 b 13 28 26 29 18 28 b 7 32 10 29 8 31 b 4 50 7 33 6 39 b 11 94 4 61 7 76 b 140 469 40 211 83 336 b 215 472 167 471 192 472 b 303 467 249 472 278 471 b 318 481 313 468 318 472 b 307 493 318 489 314 493 b 224 499 286 497 258 499 b 151 496 197 499 172 497 b 228 663 178 561 204 617 b 225 675 228 668 226 672 b 214 678 222 676 218 678 l 215 679 b 124 494 206 679 175 618 b -35 457 69 488 17 475 b -83 421 -57 450 -74 438 b -87 406 -86 417 -87 413 b -75 376 -87 392 -83 382 b -71 375 -74 375 -72 375 b -57 389 -61 376 -57 381 b -62 404 -61 397 -62 403 b -25 432 -62 415 -50 424 b 111 467 18 449 64 460 b -14 101 57 338 15 215 b -21 51 -18 81 -21 64 b 10 4 -18 25 -8 8 z "},"u":{"ha":482,"x_min":0,"x_max":0,"o":"m 272 -1 b 344 25 294 -1 318 10 b 521 183 410 63 485 129 l 522 190 b 510 204 522 199 517 204 b 499 199 504 204 500 200 b 332 47 467 150 392 82 b 269 25 306 33 282 25 l 265 25 b 257 33 260 26 258 28 b 256 44 256 36 256 40 b 258 68 256 51 256 58 b 329 297 281 157 292 181 l 335 313 b 338 324 336 317 338 319 l 338 326 b 332 336 338 329 338 332 b 325 339 331 339 328 339 l 318 338 l 314 335 l 308 328 b 258 254 300 315 285 289 b 107 82 217 200 158 129 b 38 33 81 58 56 40 b 22 29 32 31 26 29 l 18 29 b 8 38 14 31 11 32 b 0 76 3 47 0 60 b 22 178 0 104 8 140 b 101 347 43 236 75 299 b 103 354 103 350 103 351 b 89 367 103 361 97 367 b 78 360 85 367 79 364 b -3 186 53 311 19 247 b -26 78 -17 149 -26 111 b -15 25 -26 58 -24 40 b 13 4 -10 14 1 6 l 22 3 b 47 8 31 3 39 6 b 124 63 71 18 97 38 b 279 239 178 113 238 183 b 288 250 283 244 283 246 b 233 75 265 185 251 144 b 229 44 231 64 229 53 b 232 26 229 38 231 32 b 260 0 236 13 247 3 z "},"v":{"ha":451,"x_min":0,"x_max":0,"o":"m 4 24 b 10 7 6 17 8 11 b 28 -7 14 0 21 -6 l 33 -7 b 67 10 46 -7 57 -1 b 150 113 93 32 121 67 b 233 249 181 158 208 204 b 285 343 258 293 275 325 b 292 354 288 347 290 351 b 296 358 293 356 294 357 l 297 360 l 299 351 b 296 325 299 343 297 335 b 292 290 293 313 292 300 b 300 254 292 276 294 264 b 319 235 304 244 311 239 b 343 226 326 231 335 228 l 356 225 b 397 232 371 225 385 228 b 428 243 410 236 421 239 b 433 249 429 244 432 247 b 436 256 435 250 436 253 b 433 265 436 260 435 263 b 422 268 431 267 426 268 l 417 267 b 389 257 410 264 401 261 b 353 251 376 253 364 251 l 346 251 b 332 257 340 253 336 254 b 322 267 328 258 325 263 b 318 292 319 271 318 279 b 321 319 318 299 319 308 b 324 343 322 328 324 336 l 324 351 b 324 367 324 357 324 363 b 318 381 322 371 321 376 b 306 390 317 385 313 389 l 300 392 b 288 388 296 392 292 390 b 263 354 278 382 269 371 l 260 349 b 207 254 249 328 231 296 b 128 126 182 211 156 169 b 50 28 99 81 72 47 b 39 21 46 24 42 22 b 35 19 38 19 36 19 l 35 18 l 33 18 l 29 32 l 28 76 b 33 179 28 111 29 146 b 46 274 38 211 42 243 b 56 354 50 301 53 328 b 43 369 54 364 50 369 b 35 367 39 369 36 368 b 31 356 32 364 31 360 b 19 275 28 329 24 303 b 7 178 15 244 11 213 b 1 72 3 143 1 108 l 3 28 b 4 24 3 26 3 25 z "},"w":{"ha":558,"x_min":0,"x_max":0,"o":"m 171 28 b 178 8 172 19 175 14 b 196 -4 182 1 188 -3 l 203 -6 b 235 10 214 -6 225 0 b 317 111 260 33 288 67 b 401 246 347 157 375 201 b 453 338 426 289 443 319 b 458 347 454 342 457 344 b 463 353 460 349 461 351 b 464 356 463 354 463 354 b 465 351 465 354 465 353 b 465 346 465 350 465 347 l 465 339 l 464 321 b 460 283 461 307 460 294 b 467 249 460 269 463 258 b 510 221 478 233 492 224 l 522 219 b 565 226 538 219 551 222 b 596 239 578 231 589 235 b 601 244 597 240 600 242 b 604 250 603 246 604 249 b 600 261 604 254 603 258 b 590 264 597 263 594 264 l 585 263 b 557 253 578 258 569 256 b 521 247 544 249 532 247 l 514 247 b 490 261 503 249 494 253 b 485 285 486 267 485 275 b 489 315 485 293 486 303 b 492 347 490 325 492 336 b 486 375 492 357 490 367 b 485 376 486 376 486 376 b 481 382 483 378 482 381 b 474 386 479 383 476 385 l 474 385 l 469 385 b 456 382 465 385 460 383 b 429 347 447 376 439 365 b 379 256 421 329 404 299 b 296 124 353 213 325 168 b 218 28 267 78 240 46 b 207 21 214 24 210 22 b 203 19 206 19 204 19 l 203 18 l 201 18 l 200 19 b 197 33 199 22 197 26 b 196 85 196 51 196 68 b 208 228 196 135 200 182 l 207 236 l 206 238 b 203 242 204 239 204 240 b 199 244 201 243 200 243 l 194 244 l 188 243 b 186 243 186 243 186 243 b 185 240 185 242 185 242 b 183 239 183 240 183 240 l 181 236 b 175 226 179 233 178 231 b 171 219 174 224 172 221 l 139 160 b 96 89 125 135 111 111 b 57 39 81 65 68 49 b 39 28 50 33 44 29 l 35 26 l 32 28 b 18 64 26 29 22 40 l 17 89 b 64 354 17 143 32 232 l 64 357 b 61 367 64 361 63 364 b 51 371 58 369 56 371 b 44 368 49 371 46 369 b 39 361 42 367 40 364 b -10 89 7 238 -10 146 l -8 63 b 19 4 -7 33 3 14 b 35 1 24 3 29 1 b 47 3 39 1 43 1 b 75 19 57 6 65 11 b 119 75 89 32 104 51 b 161 146 135 99 149 122 l 175 172 b 169 72 171 140 169 107 l 171 31 z "},"x":{"ha":343,"x_min":0,"x_max":0,"o":"m 278 367 b 267 360 272 367 268 364 b 136 185 233 307 190 249 b 129 211 133 194 131 203 b 99 419 108 281 99 350 l 100 447 b 88 461 99 456 94 461 b 78 458 83 461 81 460 b 74 449 75 456 74 453 l 74 421 b 103 206 74 349 83 276 l 115 161 b -15 22 69 107 25 60 b -19 13 -18 21 -19 17 b -15 4 -19 8 -18 6 b -7 0 -14 1 -11 0 b 3 3 -3 0 1 1 b 125 132 42 39 82 82 b 163 40 139 89 151 58 b 189 8 171 25 179 15 b 211 -1 196 1 204 -1 l 218 0 b 242 17 229 4 238 10 b 256 44 249 25 253 35 b 257 47 257 46 257 46 b 257 50 257 49 257 49 b 254 60 257 54 256 57 b 243 63 251 61 247 63 b 238 61 242 63 239 63 b 232 53 235 60 233 57 l 229 47 b 221 32 226 40 224 36 b 217 28 219 31 218 29 b 213 25 215 26 214 25 l 211 25 b 208 26 210 25 210 25 b 204 28 207 26 206 26 b 185 53 200 32 193 40 b 144 154 175 72 161 106 b 289 346 204 224 251 288 b 290 350 290 347 290 349 b 292 353 290 351 290 351 b 292 354 292 353 292 353 b 288 364 292 358 290 361 b 278 367 285 365 282 367 z "},"y":{"ha":444,"x_min":0,"x_max":0,"o":"m 24 -432 b 38 -429 29 -432 33 -431 b 78 -379 51 -422 63 -407 b 256 32 149 -249 208 -100 b 475 183 315 92 388 146 b 483 194 479 185 483 189 b 469 208 483 201 478 208 l 465 207 b 276 86 392 176 331 133 b 293 132 281 100 289 118 b 336 304 317 206 332 267 b 338 328 338 314 338 321 b 331 347 336 335 336 342 b 318 353 326 351 322 353 l 314 353 b 306 350 311 353 308 351 b 289 335 300 347 294 342 b 61 129 175 200 97 140 l 49 126 l 43 128 b 36 133 40 129 39 129 l 35 144 b 44 192 35 156 38 172 b 129 344 60 233 100 301 b 132 351 131 344 132 347 b 118 364 132 358 126 364 b 108 358 113 364 108 361 b 19 200 78 315 36 249 b 10 147 13 181 10 163 b 13 125 10 139 10 132 b 35 103 17 115 24 107 b 49 101 39 101 43 101 b 68 104 54 101 61 101 b 310 318 118 119 194 182 l 311 321 b 310 307 311 317 311 313 b 268 140 307 274 292 213 b 233 46 260 113 244 76 b 49 -233 146 -44 85 -147 b 4 -397 18 -306 4 -362 l 4 -401 b 11 -424 6 -410 6 -418 b 24 -432 14 -428 18 -431 z m 31 -399 b 72 -244 31 -375 42 -315 b 208 -21 101 -175 147 -96 b 54 -367 165 -136 114 -257 b 31 -399 43 -387 35 -394 z "},"z":{"ha":383,"x_min":0,"x_max":0,"o":"m 283 297 b 317 347 301 317 313 333 b 319 364 318 353 319 358 l 319 369 b 307 388 317 378 313 383 b 286 394 300 392 293 393 l 263 394 b 206 382 246 392 226 388 b 72 321 163 369 118 349 b 19 279 51 308 33 294 b 6 257 14 272 10 265 b 3 243 4 253 3 247 b 4 231 3 239 3 235 b 17 222 7 225 11 222 b 26 226 21 222 24 224 b 29 235 28 228 29 231 l 28 243 l 29 247 b 39 263 31 251 33 257 b 86 299 50 274 65 286 b 151 333 107 311 128 324 b 213 357 175 343 194 351 b 265 368 233 363 251 367 l 272 368 b 292 365 282 368 289 367 l 294 361 l 293 356 b 261 310 289 346 279 331 l -19 29 b -35 7 -26 21 -32 14 b -37 1 -36 6 -36 3 b -39 -7 -39 0 -39 -3 l -37 -10 b -33 -17 -36 -11 -35 -14 b -28 -18 -32 -18 -29 -18 b -25 -19 -26 -19 -26 -19 l -19 -19 b 1 -14 -12 -19 -6 -18 b 39 1 11 -11 24 -6 b 78 19 50 7 63 13 b 353 142 140 51 232 92 b 360 147 356 143 358 144 b 361 154 361 149 361 151 b 358 164 361 158 360 161 b 349 167 356 165 353 167 b 346 167 347 167 347 167 b 343 165 344 167 344 167 b 65 43 221 115 128 75 b 28 25 51 36 39 31 b 3 14 18 21 10 18 b 4 17 4 15 4 17 l 281 293 b 283 297 282 294 283 294 z "}}}
